Coordinates
version=1
nRows=13
nColumns=26
inDegrees=yes

Units are S.I. units (second, meters, Newtons, ...)
Angles are in degrees.

endheader
time	pelvis_tilt	pelvis_list	pelvis_rotation	pelvis_tx	pelvis_ty	pelvis_tz	hip_flexion_r	hip_adduction_r	hip_rotation_r	knee_angle_r	knee_angle_r_beta	ankle_angle_r	subtalar_angle_r	mtp_angle_r	hip_flexion_l	hip_adduction_l	hip_rotation_l	knee_angle_l	knee_angle_l_beta	ankle_angle_l	subtalar_angle_l	mtp_angle_l	lumbar_extension	lumbar_bending	lumbar_rotation
      0.80833333	      9.52061295	     -2.63033468	      1.30065202	      0.98848580	      1.00896470	      0.28040275	      0.89388141	      5.35520251	     -9.96628570	     14.43107658	     14.43107658	      2.41335268	      0.00000000	      0.00000000	      2.39127310	    -14.21866785	    -14.52844455	     64.06245054	     64.06245054	      7.62973837	      0.00000000	      0.00000000	    -21.21551145	      4.56223076	      6.17094279
      0.81666667	      9.37396389	     -2.60011492	      1.19699750	      0.99581294	      1.00967665	      0.28122389	      0.41305854	      5.41152309	     -9.88764610	     14.13756303	     14.13756303	      2.61635814	      0.00000000	      0.00000000	      3.74120103	    -14.20108756	    -14.48734475	     64.28688015	     64.28688015	      7.61833856	      0.00000000	      0.00000000	    -21.08995400	      4.46392205	      6.14951435
      0.82500000	      9.18034969	     -2.65388575	      1.17593726	      1.00305757	      1.01024318	      0.28178314	     -0.04941255	      5.56320791	     -9.81306579	     13.75478036	     13.75478036	      2.74173187	      0.00000000	      0.00000000	      5.18151966	    -14.21248377	    -14.32601052	     64.35048702	     64.35048702	      7.56295889	      0.00000000	      0.00000000	    -20.90999168	      4.50439312	      6.08479061
      0.83333333	      8.96988783	     -2.60783080	      1.12932343	      1.01017933	      1.01074914	      0.28257368	     -0.54656088	      5.62519894	     -9.65907578	     13.26831132	     13.26831132	      2.88483845	      0.00000000	      0.00000000	      6.86773374	    -14.11394980	    -14.19682185	     64.49837582	     64.49837582	      7.09835105	      0.00000000	      0.00000000	    -20.73169080	      4.40330155	      6.00095831
      0.84166667	      8.80029374	     -2.51869769	      1.07138769	      1.01736671	      1.01132724	      0.28306391	     -1.05362771	      5.60707865	     -9.54541522	     12.87746612	     12.87746612	      3.07034645	      0.00000000	      0.00000000	      8.20299241	    -13.88026709	    -14.11703109	     64.22161520	     64.22161520	      6.99676401	      0.00000000	      0.00000000	    -20.59239677	      4.29859321	      5.91739150
      0.85000000	      8.59993790	     -2.47589211	      1.05867375	      1.02447119	      1.01183541	      0.28340770	     -1.52298653	      5.63324104	     -9.43399096	     12.47217531	     12.47217531	      3.24417267	      0.00000000	      0.00000000	      9.35557843	    -13.53570603	    -13.80351114	     63.55083142	     63.55083142	      7.19590258	      0.00000000	      0.00000000	    -20.42532975	      4.27740213	      5.79082821
      0.85833333	      8.48915199	     -2.26940339	      0.88426535	      1.03162641	      1.01246933	      0.28385440	     -2.07779718	      5.45526102	     -9.21418052	     12.11610388	     12.11610388	      3.46074753	      0.00000000	      0.00000000	     10.35835288	    -13.08280388	    -13.84497773	     62.72400596	     62.72400596	      7.08404745	      0.00000000	      0.00000000	    -20.36173262	      4.05523161	      5.75210686
      0.86666667	      8.37335530	     -2.24205116	      0.79153531	      1.03876446	      1.01296041	      0.28421309	     -2.65156275	      5.47408534	     -9.03726943	     11.68330726	     11.68330726	      3.51340465	      0.00000000	      0.00000000	     11.45399945	    -12.80545899	    -13.78245867	     61.86535859	     61.86535859	      6.75567382	      0.00000000	      0.00000000	    -20.29441338	      4.06029413	      5.71046407
      0.87500000	      8.21347809	     -2.28736807	      0.71861109	      1.04584920	      1.01328902	      0.28470297	     -3.19538781	      5.60846517	     -8.81546855	     11.20720374	     11.20720374	      3.63369398	      0.00000000	      0.00000000	     12.58355216	    -12.62800170	    -13.71844856	     60.90368905	     60.90368905	      6.52157644	      0.00000000	      0.00000000	    -20.19079552	      4.12862519	      5.70272992
      0.88333333	      8.00112931	     -2.49427465	      0.64195122	      1.05294385	      1.01342543	      0.28533850	     -3.72411324	      5.93760434	     -8.51292628	     10.58012391	     10.58012391	      3.57621548	      0.00000000	      0.00000000	     13.76503676	    -12.66352115	    -13.64122542	     59.91915567	     59.91915567	      6.33190370	      0.00000000	      0.00000000	    -20.03194573	      4.36478688	      5.73969738
      0.89166667	      7.76353895	     -2.63646535	      0.60908463	      1.05996538	      1.01324400	      0.28589749	     -4.17583806	      6.20831554	     -8.44003681	     10.12735867	     10.12735867	      3.92439971	      0.00000000	      0.00000000	     14.92977038	    -12.59153621	    -13.45673235	     58.79129540	     58.79129540	      6.10166041	      0.00000000	      0.00000000	    -19.83629895	      4.54099141	      5.72502430
      0.90000000	      7.52847555	     -2.82913922	      0.52704172	      1.06699150	      1.01302476	      0.28655571	     -4.62588543	      6.51853308	     -8.23384199	      9.65370994	      9.65370994	      4.12847229	      0.00000000	      0.00000000	     16.04091034	    -12.60948209	    -13.34323752	     57.57782925	     57.57782925	      5.77156681	      0.00000000	      0.00000000	    -19.65544587	      4.75559301	      5.79830661
      0.90833333	      7.32086942	     -3.02271252	      0.47809374	      1.07408203	      1.01270314	      0.28694031	     -5.17678636	      6.83109168	     -7.94904414	      9.07240019	      9.07240019	      4.34687248	      0.00000000	      0.00000000	     17.08428855	    -12.59658231	    -13.23807034	     56.22950874	     56.22950874	      5.38610225	      0.00000000	      0.00000000	    -19.49508310	      5.00522409	      5.86919303
